<?xml version="1.0" standalone="no"?><svg xmlns="http://www.w3.org/2000/svg" viewBox="0 0 1440 320"><path fill="#390072" fill-opacity="1" d="M0,64L21.8,69.3C43.6,75,87,85,131,85.3C174.5,85,218,75,262,101.3C305.5,128,349,192,393,197.3C436.4,203,480,149,524,149.3C567.3,149,611,203,655,208C698.2,213,742,171,785,138.7C829.1,107,873,85,916,96C960,107,1004,149,1047,160C1090.9,171,1135,149,1178,154.7C1221.8,160,1265,192,1309,202.7C1352.7,213,1396,203,1418,197.3L1440,192L1440,0L1418.2,0C1396.4,0,1353,0,1309,0C1265.5,0,1222,0,1178,0C1134.5,0,1091,0,1047,0C1003.6,0,960,0,916,0C872.7,0,829,0,785,0C741.8,0,698,0,655,0C610.9,0,567,0,524,0C480,0,436,0,393,0C349.1,0,305,0,262,0C218.2,0,175,0,131,0C87.3,0,44,0,22,0L0,0Z"></path></svg>